<svg aria-hidden="true" style="position:absolute;width:0;height:0;overflow:hidden" xmlns="http://www.w3.org/2000/svg">
  <defs>
    <symbol id="icon-mobile-menu" viewBox="0 0 32 32">
      <path d="M8.667 15.333a5.99 5.99 0 0 1-4.243-1.758 6.01 6.01 0 0 1-1.758-4.243 5.99 5.99 0 0 1 1.758-4.243 6.01 6.01 0 0 1 4.243-1.758 5.996 5.996 0 0 1 6 6 5.996 5.996 0 0 1-6 6zm.666 13.334a5.996 5.996 0 0 1-6-6 5.996 5.996 0 0 1 6-6 5.996 5.996 0 0 1 6 6 6.002 6.002 0 0 1-6 6zm13.334-13.334a5.99 5.99 0 0 1-4.243-1.758 6.01 6.01 0 0 1-1.758-4.243 5.99 5.99 0 0 1 1.758-4.243 5.995 5.995 0 0 1 4.243-1.758 5.996 5.996 0 0 1 6 6 5.996 5.996 0 0 1-6 6zm0 13.334a5.996 5.996 0 0 1-6-6 5.996 5.996 0 0 1 6-6 5.996 5.996 0 0 1 6 6 5.996 5.996 0 0 1-6 6zm-14-16a3.333 3.333 0 1 0 0-6.667 3.333 3.333 0 0 0 0 6.667zM9.333 26a3.333 3.333 0 1 0 0-6.667 3.333 3.333 0 0 0 0 6.667zm13.334-13.333a3.333 3.333 0 1 0 0-6.667 3.333 3.333 0 0 0 0 6.667zm0 13.333a3.333 3.333 0 1 0 0-6.667 3.333 3.333 0 0 0 0 6.667z"/>
    </symbol>
    <symbol id="icon-close-btn" viewBox="0 0 32 32">
      <path fill="#d1c0f1" style="fill:var(--color1, #d1c0f1)" d="m16 14.115 6.6-6.6L24.485 9.4l-6.6 6.6 6.6 6.6-1.885 1.885-6.6-6.6-6.6 6.6L7.515 22.6l6.6-6.6-6.6-6.6L9.4 7.515l6.6 6.6z"/>
    </symbol>
    <symbol id="icon-arrow" viewBox="0 0 32 32">
<path d="M21.563 14.667l-7.152-7.152 1.885-1.885 10.371 10.371-10.371 10.371-1.885-1.885 7.152-7.152h-16.229v-2.667h16.229z"></path>
</symbol>
  </defs>
</svg>
